<svg xmlns="http://www.w3.org/2000/svg" version="1.1" xmlns:xlink="http://www.w3.org/1999/xlink" xmlns:svgjs="http://svgjs.dev/svgjs" width="100%" height="100%" viewBox="0 0 100 60"><rect width="100" height="60" x="0" y="0" fill="#ffffff"/><g><circle r="166.66666666666666" cx="503.4711710611979" cy="525.6932209500877" fill="#209cee" transform="matrix(0.3711354026430046,0,0,0.37113540264300454,0,104.89664834365162)"/><path d="M383.24166282591875 600.6932322897012L380.64504448438146 596.7681115408657L429.76944031788435 450.6932332111257L459.7815174282112 450.6932332111257L508.90591326171415 596.7681115408657L506.3092949201768 600.6932322897012L491.3032563650134 600.6932322897012L478.89383615138723 562.8611069182327L410.65712159470837 562.8611069182327L398.2477013810822 600.6932322897012L383.24166282591875 600.6932322897012ZM442.17886053151045 467.20893359276437L416.09190417001906 546.3454065365942L473.45905357607654 546.3454065365942L447.37209721458515 467.20893359276437L442.17886053151045 467.20893359276437ZM536.0798261382677 600.6932322897012L526.2972175027085 593.0845366842664L526.2972175027085 584.1775319080625L593.2658161251481 584.1775319080625Q608.0303087880757 584.1775319080625 608.0303087880757 569.3828460086056L608.0303087880757 569.3828460086056L608.0303087880757 551.780189111905Q608.0303087880757 539.4009621348082 596.9493909817477 537.227049104684L596.9493909817477 537.227049104684L550.2102608340756 527.6557931248312Q526.2972175027085 522.8550685166401 526.2972175027085 495.68115564008656L526.2972175027085 495.68115564008656L526.2972175027085 483.96617986663904Q526.2972175027085 450.6932332111257 559.5701641582218 450.6932332111257L559.5701641582218 450.6932332111257L612.1667821926176 450.6932332111257L621.9493908281768 458.30192881656075L621.9493908281768 467.20893359276437L559.3286182659858 467.20893359276437Q544.5641256030583 467.20893359276437 544.5641256030583 482.0036194922213L544.5641256030583 482.0036194922213L544.5641256030583 496.7681121551487Q544.5641256030583 509.17753236877485 555.6450434093863 511.3514453988991L555.6450434093863 511.3514453988991L602.3841735570584 520.6811554865158Q626.2972168884255 525.4818800947069 626.2972168884255 552.8671456269669L626.2972168884255 552.8671456269669L626.2972168884255 567.4202856341878Q626.2972168884255 600.6932322897012 593.0242702329122 600.6932322897012L593.0242702329122 600.6932322897012L536.0798261382677 600.6932322897012Z " fill="#000000" transform="matrix(0.3711354026430046,0,0,0.37113540264300454,0,104.89664834365162)"/><path d="M755.8662308255757 599.0779321000855L753.4711324494497 595.4574345547787L798.78305172802 460.7192259071307L826.465932959058 460.7192259071307L871.7778522376285 595.4574345547787L869.3827538615025 599.0779321000855L855.5413132459834 599.0779321000855L844.0949710065903 564.1819057595517L781.1540136804878 564.1819057595517L769.7076714410947 599.0779321000855L755.8662308255757 599.0779321000855ZM810.2293939674131 475.9531655785369L786.1670102816818 548.9479660881453L839.0819744053964 548.9479660881453L815.0195907196651 475.9531655785369L810.2293939674131 475.9531655785369ZM890.2145397375754 568.9999524929215L890.2145397375754 568.9999524929215L890.2145397375754 524.885582402414Q890.2145397375754 494.80760279525 920.2925193447394 494.80760279525L920.2925193447394 494.80760279525L960.3964921542916 494.80760279525L960.3964921542916 450.6932327047426L976.4380812781125 450.6932327047426L976.4380812781125 599.0779321000855L920.2925193447394 599.0779321000855Q890.2145397375754 599.0779321000855 890.2145397375754 568.9999524929215ZM906.2561288613962 522.8803837619364L906.2561288613962 571.0051511333991Q906.2561288613962 585.0415416167423 920.2925193447394 585.0415416167423L920.2925193447394 585.0415416167423L960.3964921542916 585.0415416167423L960.3964921542916 508.8439932785932L920.2925193447394 508.8439932785932Q906.2561288613962 508.8439932785932 906.2561288613962 522.8803837619364L906.2561288613962 522.8803837619364ZM1085.9442070330838 599.0779321000855L1033.196342796076 599.0779321000855Q1002.9234133210874 599.0779321000855 1002.9234133210874 568.8050026250971Q1002.9234133210874 538.5320731501089 1033.196342796076 538.5320731501089L1033.196342796076 538.5320731501089L1069.902617909263 538.5320731501089L1069.902617909263 522.8803837619364Q1069.902617909263 508.8439932785932 1055.86622742592 508.8439932785932L1055.86622742592 508.8439932785932L1012.9494065234754 508.8439932785932L1012.9494065234754 500.8231987166828L1020.9702010853858 494.80760279525L1055.86622742592 494.80760279525Q1085.9442070330838 494.80760279525 1085.9442070330838 524.885582402414L1085.9442070330838 524.885582402414L1085.9442070330838 599.0779321000855ZM1018.9650024449082 565.6022547965565L1018.9650024449082 571.0051511333991Q1018.9650024449082 585.0415416167423 1033.0013929282513 585.0415416167423L1033.0013929282513 585.0415416167423L1069.902617909263 585.0415416167423L1069.902617909263 551.5658643132133L1033.0013929282513 551.5658643132133Q1018.9650024449082 551.5658643132133 1018.9650024449082 565.6022547965565L1018.9650024449082 565.6022547965565ZM1133.2613249521319 599.0779321000855L1117.219735828311 599.0779321000855L1117.219735828311 494.80760279525L1235.5264556164898 494.80760279525Q1265.604435223654 494.80760279525 1265.604435223654 524.885582402414L1265.604435223654 524.885582402414L1265.604435223654 599.0779321000855L1249.5628460998332 599.0779321000855L1249.5628460998332 522.8803837619364Q1249.5628460998332 508.8439932785932 1235.5264556164898 508.8439932785932L1235.5264556164898 508.8439932785932L1199.432880087893 508.8439932785932L1199.432880087893 599.0779321000855L1183.3912909640721 599.0779321000855L1183.3912909640721 508.8439932785932L1133.2613249521319 508.8439932785932L1133.2613249521319 599.0779321000855ZM1350.0177279915374 599.0779321000855L1340.9943341093885 592.0597368584138L1340.9943341093885 583.8439924286793L1402.7655922285458 583.8439924286793Q1416.384232995123 583.8439924286793 1416.384232995123 570.1975016809845L1416.384232995123 570.1975016809845L1416.384232995123 553.9609626893393Q1416.384232995123 542.5424704310641 1406.1632899249107 540.5372717905865L1406.1632899249107 540.5372717905865L1363.051519154642 531.7088277762614Q1340.9943341093885 527.28068077854 1340.9943341093885 502.21569777257L1340.9943341093885 502.21569777257L1340.9943341093885 491.40990509888513Q1340.9943341093885 460.7192259071307 1371.685013301143 460.7192259071307L1371.685013301143 460.7192259071307L1420.1996804082537 460.7192259071307L1429.223074290403 467.7374211488023L1429.223074290403 475.9531655785369L1371.462213452201 475.9531655785369Q1357.8435726856237 475.9531655785369 1357.8435726856237 489.59965632623175L1357.8435726856237 489.59965632623175L1357.8435726856237 503.2182970928088Q1357.8435726856237 514.6646393322019 1368.064515755836 516.6698379726795L1368.064515755836 516.6698379726795L1411.1762865261044 525.2754821380624Q1433.2334715713582 529.7036291357838 1433.2334715713582 554.9635620095781L1433.2334715713582 554.9635620095781L1433.2334715713582 568.387252908331Q1433.2334715713582 599.0779321000855 1402.5427923796037 599.0779321000855L1402.5427923796037 599.0779321000855L1350.0177279915374 599.0779321000855ZM1459.6909536332155 568.9999524929215L1459.6909536332155 568.9999524929215L1459.6909536332155 524.885582402414Q1459.6909536332155 494.80760279525 1489.7689332403797 494.80760279525L1489.7689332403797 494.80760279525L1529.093106578635 494.80760279525L1537.1139011405453 500.8231987166828L1537.1139011405453 508.8439932785932L1489.7689332403797 508.8439932785932Q1475.7325427570363 508.8439932785932 1475.7325427570363 522.8803837619364L1475.7325427570363 522.8803837619364L1475.7325427570363 571.0051511333991Q1475.7325427570363 585.0415416167423 1489.7689332403797 585.0415416167423L1489.7689332403797 585.0415416167423L1537.1139011405453 585.0415416167423L1537.1139011405453 593.0623361786527L1529.093106578635 599.0779321000855L1489.7689332403797 599.0779321000855Q1459.6909536332155 599.0779321000855 1459.6909536332155 568.9999524929215ZM1578.4154231381603 599.0779321000855L1562.3738340143395 599.0779321000855L1562.3738340143395 450.6932327047426L1578.4154231381603 450.6932327047426L1578.4154231381603 494.80760279525L1618.5193959477128 494.80760279525Q1648.5973755548766 494.80760279525 1648.5973755548766 524.885582402414L1648.5973755548766 524.885582402414L1648.5973755548766 599.0779321000855L1632.5557864310558 599.0779321000855L1632.5557864310558 522.8803837619364Q1632.5557864310558 508.8439932785932 1618.5193959477128 508.8439932785932L1618.5193959477128 508.8439932785932L1578.4154231381603 508.8439932785932L1578.4154231381603 599.0779321000855ZM1678.2576054452747 568.9999524929215L1678.2576054452747 568.9999524929215L1678.2576054452747 524.885582402414Q1678.2576054452747 494.80760279525 1708.3355850524385 494.80760279525L1708.3355850524385 494.80760279525L1736.4083660191254 494.80760279525Q1766.4863456262892 494.80760279525 1766.4863456262892 524.885582402414L1766.4863456262892 524.885582402414L1766.4863456262892 568.9999524929215Q1766.4863456262892 599.0779321000855 1736.4083660191254 599.0779321000855L1736.4083660191254 599.0779321000855L1708.3355850524385 599.0779321000855Q1678.2576054452747 599.0779321000855 1678.2576054452747 568.9999524929215ZM1694.2991945690956 522.8803837619364L1694.2991945690956 571.0051511333991Q1694.2991945690956 585.0415416167423 1708.3355850524385 585.0415416167423L1708.3355850524385 585.0415416167423L1736.4083660191254 585.0415416167423Q1750.4447565024684 585.0415416167423 1750.4447565024684 571.0051511333991L1750.4447565024684 571.0051511333991L1750.4447565024684 522.8803837619364Q1750.4447565024684 508.8439932785932 1736.4083660191254 508.8439932785932L1736.4083660191254 508.8439932785932L1708.3355850524385 508.8439932785932Q1694.2991945690956 508.8439932785932 1694.2991945690956 522.8803837619364L1694.2991945690956 522.8803837619364ZM1795.3667760453905 568.9999524929215L1795.3667760453905 568.9999524929215L1795.3667760453905 524.885582402414Q1795.3667760453905 494.80760279525 1825.4447556525547 494.80760279525L1825.4447556525547 494.80760279525L1851.5123379787633 494.80760279525Q1881.5903175859276 494.80760279525 1881.5903175859276 524.885582402414L1881.5903175859276 524.885582402414L1881.5903175859276 553.1533132369248L1811.4083651692113 553.1533132369248L1811.4083651692113 571.0051511333991Q1811.4083651692113 585.0415416167423 1825.4447556525547 585.0415416167423L1825.4447556525547 585.0415416167423L1877.5799203049723 585.0415416167423L1877.5799203049723 593.0623361786527L1869.559125743062 599.0779321000855L1825.4447556525547 599.0779321000855Q1795.3667760453905 599.0779321000855 1795.3667760453905 568.9999524929215ZM1811.4083651692113 522.8803837619364L1811.4083651692113 540.1195220738202L1865.5487284621067 540.1195220738202L1865.5487284621067 522.8803837619364Q1865.5487284621067 508.8439932785932 1851.5123379787633 508.8439932785932L1851.5123379787633 508.8439932785932L1825.4447556525547 508.8439932785932Q1811.4083651692113 508.8439932785932 1811.4083651692113 522.8803837619364L1811.4083651692113 522.8803837619364ZM1928.1276360336788 599.0779321000855L1912.0860469098575 599.0779321000855L1912.0860469098575 494.80760279525L1968.2316088432308 494.80760279525Q1998.309588450395 494.80760279525 1998.309588450395 524.885582402414L1998.309588450395 524.885582402414L1998.309588450395 599.0779321000855L1982.2679993265742 599.0779321000855L1982.2679993265742 522.8803837619364Q1982.2679993265742 508.8439932785932 1968.2316088432308 508.8439932785932L1968.2316088432308 508.8439932785932L1928.1276360336788 508.8439932785932L1928.1276360336788 599.0779321000855ZM2045.6267063694431 599.0779321000855L2029.5851172456219 599.0779321000855L2029.5851172456219 480.7712123119067Q2029.5851172456219 450.6932327047426 2059.663096852786 450.6932327047426L2059.663096852786 450.6932327047426L2077.7098846170848 450.6932327047426L2085.7306791789947 456.7088286261755L2085.7306791789947 464.7296231880859L2059.663096852786 464.7296231880859Q2045.6267063694431 464.7296231880859 2045.6267063694431 478.7660136714291L2045.6267063694431 478.7660136714291L2045.6267063694431 494.80760279525L2083.7254805385173 494.80760279525L2083.7254805385173 508.8439932785932L2045.6267063694431 508.8439932785932L2045.6267063694431 599.0779321000855ZM2104.1673666789416 568.9999524929215L2104.1673666789416 568.9999524929215L2104.1673666789416 524.885582402414Q2104.1673666789416 494.80760279525 2134.245346286106 494.80760279525L2134.245346286106 494.80760279525L2160.312928612315 494.80760279525Q2190.390908219479 494.80760279525 2190.390908219479 524.885582402414L2190.390908219479 524.885582402414L2190.390908219479 553.1533132369248L2120.2089558027624 553.1533132369248L2120.2089558027624 571.0051511333991Q2120.2089558027624 585.0415416167423 2134.245346286106 585.0415416167423L2134.245346286106 585.0415416167423L2186.380510938524 585.0415416167423L2186.380510938524 593.0623361786527L2178.3597163766135 599.0779321000855L2134.245346286106 599.0779321000855Q2104.1673666789416 599.0779321000855 2104.1673666789416 568.9999524929215ZM2120.2089558027624 522.8803837619364L2120.2089558027624 540.1195220738202L2174.3493190956583 540.1195220738202L2174.3493190956583 522.8803837619364Q2174.3493190956583 508.8439932785932 2160.312928612315 508.8439932785932L2160.312928612315 508.8439932785932L2134.245346286106 508.8439932785932Q2120.2089558027624 508.8439932785932 2120.2089558027624 522.8803837619364L2120.2089558027624 522.8803837619364ZM2220.0789880909947 570.6152513977506L2220.0789880909947 570.6152513977506L2220.0789880909947 450.6932327047426L2236.1205772148155 450.6932327047426L2236.1205772148155 572.2027003214621Q2236.1205772148155 586.044140936981 2250.1569676981585 586.8517903893955L2250.1569676981585 586.8517903893955L2250.1569676981585 600.6932310049147Q2220.0789880909947 600.6932310049147 2220.0789880909947 570.6152513977506ZM2271.4065032909975 568.9999524929215L2271.4065032909975 568.9999524929215L2271.4065032909975 524.885582402414Q2271.4065032909975 494.80760279525 2301.484482898162 494.80760279525L2301.484482898162 494.80760279525L2341.588455707714 494.80760279525L2341.588455707714 450.6932327047426L2357.630044831535 450.6932327047426L2357.630044831535 599.0779321000855L2301.484482898162 599.0779321000855Q2271.4065032909975 599.0779321000855 2271.4065032909975 568.9999524929215ZM2287.448092414819 522.8803837619364L2287.448092414819 571.0051511333991Q2287.448092414819 585.0415416167423 2301.484482898162 585.0415416167423L2301.484482898162 585.0415416167423L2341.588455707714 585.0415416167423L2341.588455707714 508.8439932785932L2301.484482898162 508.8439932785932Q2287.448092414819 508.8439932785932 2287.448092414819 522.8803837619364L2287.448092414819 522.8803837619364Z " fill="#000000" transform="matrix(0.3711354026430046,0,0,0.37113540264300454,0,104.89664834365162)"/></g></svg>